<svg xmlns="http://www.w3.org/2000/svg" xmlns:xlink="http://www.w3.org/1999/xlink" id="Layer_1" width="30" height="30" x="0" y="0" enable-background="new 0 0 30 30" version="1.1" viewBox="0 0 30 30" xml:space="preserve"><g id="Blue_Gradient" display="none"><linearGradient id="SVGID_1_" x1="-369" x2="1591" y1="310" y2="310" gradientTransform="matrix(1 0 0 -1 244 125)" gradientUnits="userSpaceOnUse"><stop offset="0" style="stop-color:#00aeef"/><stop offset="1" style="stop-color:#2e3092"/></linearGradient><rect width="1960" height="520" x="-125" y="-445" fill="url(#SVGID_1_)" display="inline"/></g><path fill="#FFF" d="M15,14.451l8-4.48V9.6C23,8.72,22.279,8,21.4,8H8.6C7.72,8,7,8.72,7,9.6v0.371L15,14.451z"/><path fill="#FFF" d="M15,16.836l-8-4.96V20.4C7,21.279,7.72,22,8.6,22h12.8c0.879,0,1.6-0.721,1.6-1.6v-8.525L15,16.836z"/><g id="Square_Hover_Color" display="none"><rect width="30" height="30" fill="#8DC63F" display="inline"/><path fill="#FFF" d="M21.4,8H8.6C7.72,8,7,8.72,7,9.6v10.8C7,21.279,7.72,22,8.6,22h12.8 c0.879,0,1.6-0.721,1.6-1.6V9.6C23,8.72,22.279,8,21.4,8z" display="inline"/><polygon fill="#8DC63F" points="15 14.68 7 10.2 7 11.64 15 16.6 23 11.64 23 10.2" display="inline"/></g><g id="Circle_Idle" display="none"><path d="M15,30L15,30C6.716,30,0,23.284,0,15l0,0 C0,6.716,6.716,0,15,0l0,0c8.284,0,15,6.716,15,15l0,0C30,23.284,23.284,30,15,30z" display="inline" enable-background="new" opacity=".3"/><path fill="#FFF" d="M15,14.451l8-4.48V9.6C23,8.72,22.279,8,21.4,8H8.6C7.72,8,7,8.72,7,9.6v0.371L15,14.451z" display="inline"/><path fill="#FFF" d="M15,16.836l-8-4.96V20.4C7,21.279,7.72,22,8.6,22h12.8c0.879,0,1.6-0.721,1.6-1.6v-8.525 L15,16.836z" display="inline"/></g><g id="Circle_Hover_Color" display="none"><path fill="#8DC63F" d="M15,30L15,30C6.716,30,0,23.284,0,15l0,0C0,6.716,6.716,0,15,0l0,0 c8.284,0,15,6.716,15,15l0,0C30,23.284,23.284,30,15,30z" display="inline"/><path fill="#FFF" d="M21.4,8H8.6C7.72,8,7,8.72,7,9.6v10.8C7,21.279,7.72,22,8.6,22h12.8 c0.879,0,1.6-0.721,1.6-1.6V9.6C23,8.72,22.279,8,21.4,8z" display="inline"/><polygon fill="#8DC63F" points="15 14.68 7 10.2 7 11.64 15 16.6 23 11.64 23 10.2" display="inline"/></g></svg>