<svg xmlns="http://www.w3.org/2000/svg" xmlns:xlink="http://www.w3.org/1999/xlink" id="Layer_1" width="30" height="30" x="0" y="0" enable-background="new 0 0 30 30" version="1.1" viewBox="0 0 30 30" xml:space="preserve"><g id="Blue_Gradient" display="none"><linearGradient id="SVGID_1_" x1="-1665" x2="295" y1="310" y2="310" gradientTransform="matrix(1 0 0 -1 244 125)" gradientUnits="userSpaceOnUse"><stop offset="0" style="stop-color:#00aeef"/><stop offset="1" style="stop-color:#2e3092"/></linearGradient><rect width="1960" height="520" x="-1421" y="-445" fill="url(#SVGID_1_)" display="inline"/></g><polygon fill="#FFF" points="23 19 20 19 20 23 16 19 7 19 7 9 23 9"/><g id="Square_Hover_Color" display="none"><rect width="30" height="30" fill="#007AC2" display="inline"/><polygon fill="#FFF" points="23 19 20 19 20 23 16 19 7 19 7 9 23 9" display="inline"/></g><g id="Circle_Idle" display="none"><path d="M15,30L15,30C6.716,30,0,23.284,0,15l0,0 C0,6.716,6.716,0,15,0l0,0c8.284,0,15,6.716,15,15l0,0C30,23.284,23.284,30,15,30z" display="inline" enable-background="new" opacity=".3"/><polygon fill="#FFF" points="23 19 20 19 20 23 16 19 7 19 7 9 23 9" display="inline"/></g><g id="Circle_Hover_Color" display="none"><path fill="#007AC2" d="M15,30L15,30C6.716,30,0,23.284,0,15l0,0C0,6.716,6.716,0,15,0l0,0 c8.284,0,15,6.716,15,15l0,0C30,23.284,23.284,30,15,30z" display="inline"/><polygon fill="#FFF" points="23 19 20 19 20 23 16 19 7 19 7 9 23 9" display="inline"/></g></svg>